# xmcd CD database file
#
# Track frame offsets:
#	150
#	13002
#	28212
#	49020
#	62512
#	90387
#	105397
#	116935
#	136772
#	147795
#	158722
#	174137
#	191597
#	214127
#	231387
#	249617
#	264190
#	283730
#
# Disc length: 3964 seconds
#
# Revision: 3
# Processed by: cddbd v1.5.2PL0 Copyright (c) Steve Scherf et al.
# Submitted via: CDex 1.70beta2
#
DISCID=f50f7a12
DTITLE=TOSHIBA-EMI - 笑ケース Disc1
DYEAR=1996
DGENRE=Comedy
TTITLE0=植木 等/スーダラ節
TTITLE1=ザ・フォーク・クルセイダーズ/帰ってきたヨッパライ
TTITLE2=つボイノリオ/金太の大冒険
TTITLE3=由利 徹　南 利明/カックン・ルンバ
TTITLE4=なぎら けんいち/悲惨な戦い
TTITLE5=森山 加代子/じんじろげ
TTITLE6=Ｗけんじ/ダブ子ちゃん
TTITLE7=サクセス/恋のF-1グランプリ
TTITLE8=ジェリー藤尾/インディアン・ツイスト
TTITLE9=自切俳人とヒューマン・ズー/世界は君のもの
TTITLE10=はかま 満緒/浪曲ウエスタン
TTITLE11=うなずきトリオ/うなずきマーチ
TTITLE12=うなずきトリオ/Ｂ面でうなずいて
TTITLE13=小林 旭/宇宙旅行の渡り鳥
TTITLE14=増田 貴光/夜の虫
TTITLE15=加川 淳子　小松 おさむとダークフェローズ/男のいない国へ行きたいな
TTITLE16=はやしこば/あのエリマキトカゲの唄
TTITLE17=プッシーズ/肌色の歌
EXTD=YEAR: 1996
EXTT0=
EXTT1=
EXTT2=
EXTT3=
EXTT4=
EXTT5=
EXTT6=
EXTT7=
EXTT8=
EXTT9=
EXTT10=
EXTT11=
EXTT12=
EXTT13=
EXTT14=
EXTT15=
EXTT16=
EXTT17=
PLAYORDER=
